<svg xmlns="http://www.w3.org/2000/svg" viewBox="0 0 136.13 92.05"><defs><style>.cls-1{fill:#a8bf34;}.cls-1,.cls-3{fill-rule:evenodd;}.cls-2,.cls-3{fill:#fff;}</style></defs><title>Asset 1</title><g id="Layer_2" data-name="Layer 2"><g id="_1" data-name="1"><path class="cls-1" d="M68.06,0a32.3,32.3,0,1,1-32.3,32.3A32.3,32.3,0,0,1,68.06,0"/><path class="cls-2" d="M21,4.14h15.5V6.37h-2.8a1.76,1.76,0,0,0-1.31.43A1.7,1.7,0,0,0,32,8v27.5a1.8,1.8,0,0,0,.43,1.37,2.2,2.2,0,0,0,1.59.53h2.49v2.23H21V37.44h2.37A2.47,2.47,0,0,0,25.07,37a1.87,1.87,0,0,0,.5-1.42V8.35a2.09,2.09,0,0,0-.46-1.49,1.93,1.93,0,0,0-1.45-.48H21Z"/><path class="cls-3" d="M48.73,21.65h3.86a6.61,6.61,0,0,0,3.59-1,5.77,5.77,0,0,0,2.24-2.39,11.45,11.45,0,0,0,.66-4.55q0-4.33-2-6.1c-1-.85-2.7-1.27-5.1-1.27a5.48,5.48,0,0,0-2.65.39,1.54,1.54,0,0,0-.56,1.35Zm3-17.5h4A10,10,0,0,1,63.13,7,9.43,9.43,0,0,1,66,13.92a9.19,9.19,0,0,1-6,8.86,15,15,0,0,1-5.44,1.06H48.73V35.41a2.12,2.12,0,0,0,.49,1.49,1.61,1.61,0,0,0,1.24.53H54v2.23H37.44V37.43h2.78a1.79,1.79,0,0,0,1.4-.53,2.16,2.16,0,0,0,.47-1.49l.06-22C46.59,6.69,47.53,7.85,51.69,4.15Zm-14.25,0H49A23,23,0,0,0,42.1,11.1V8.35a2,2,0,0,0-.49-1.44,1.54,1.54,0,0,0-1.18-.53h-3Z"/><path class="cls-2" d="M72.77,27.83l1.75-3.19h1.34L76,37h-1.7A18.13,18.13,0,0,0,70.58,29a7.2,7.2,0,0,0-5.37-2.64,5.22,5.22,0,0,0-4.08,1.75,6,6,0,0,0-1.58,4.18A5.65,5.65,0,0,0,60.18,35a5.31,5.31,0,0,0,2,2.07A19.64,19.64,0,0,0,67,38.81a27.38,27.38,0,0,1,5.6,2,9.3,9.3,0,0,1,3.68,3.71,11.84,11.84,0,0,1,1.22,5.61A11.33,11.33,0,0,1,74.88,58a10.27,10.27,0,0,1-7.93,3.55q-4.36,0-8-3.89l-2.21,3.53H55.41V47.93H57q2.47,11.32,10,11.32a6.27,6.27,0,0,0,4.81-1.82,6.36,6.36,0,0,0,1.72-4.55,6.25,6.25,0,0,0-.75-3.2A5.49,5.49,0,0,0,70.5,47.6a32.27,32.27,0,0,0-4.3-1.38,22.93,22.93,0,0,1-6.59-2.69,8.44,8.44,0,0,1-2.89-3.4,11.72,11.72,0,0,1-.93-4.91,12,12,0,0,1,2.55-8,8.45,8.45,0,0,1,6.85-3.07,10.24,10.24,0,0,1,7.56,3.64"/><path class="cls-3" d="M90.48,61v.47H90Zm8-14.1h0c.27-.88.48-1.74.65-2.52h0l5.16-20h11.76v2.33h-2.55a1.59,1.59,0,0,0-1.3.45,2.59,2.59,0,0,0-.36,1.56V57a2.12,2.12,0,0,0,.39,1.48,2.05,2.05,0,0,0,1.56.61h2.26v2.33H101.6V59.11h2.74a1.33,1.33,0,0,0,1.15-.56,2.59,2.59,0,0,0,.4-1.53V26.63L96.78,61.44h-1.7L94,57.23h0A47.07,47.07,0,0,0,98.53,46.87ZM79.89,24.29H91.39L97.32,46c-1.14,2.91-3.35,5-4.41,7.05l.15.56L86,26.32V53.48a6.15,6.15,0,0,0,1.14,3.83A4.55,4.55,0,0,0,89.71,59l0,0h0l0,0,0,0-.06.07h0l0,0-.09.11h0l0,0-.13.16,0,0h0l-.05.07,0,0h0l-.32.39h0l-.06.08h0l0,0h0l-.06.07,0,0-.19.22,0,0q-.4.45-.83.9H79.89V59.11A4.2,4.2,0,0,0,83,57.28a7.08,7.08,0,0,0,1.11-4.1v-24a3.49,3.49,0,0,0-.4-2,2,2,0,0,0-1.57-.51H79.89Z"/><path class="cls-2" d="M0,72.4H4v.53H3.31A.49.49,0,0,0,3,73a.38.38,0,0,0-.11.29v6.5a.41.41,0,0,0,.11.32.62.62,0,0,0,.42.12H4v.53H0v-.53H.62a.69.69,0,0,0,.45-.11.42.42,0,0,0,.13-.33V73.39A.46.46,0,0,0,1.08,73a.53.53,0,0,0-.38-.11H0Z"/><path class="cls-2" d="M4.77,73.8h2l3.55,4.8V75.34a1.12,1.12,0,0,0-.26-.77,1,1,0,0,0-.73-.32V73.8h2.4v.44a1,1,0,0,0-.72.32,1.2,1.2,0,0,0-.22.78v5.46h-.51l-4-5.52V79.1a1.37,1.37,0,0,0,.28,1,.92.92,0,0,0,.7.3h.11v.44H4.72v-.44H4.9A.81.81,0,0,0,5.56,80a1.31,1.31,0,0,0,.27-.85V74.66a.9.9,0,0,0-.76-.42H4.77Z"/><path class="cls-2" d="M16.5,74.34l.41-.62h.31l0,2.42h-.4A3.34,3.34,0,0,0,16,74.57a1.84,1.84,0,0,0-1.26-.52,1.36,1.36,0,0,0-1,.34,1.08,1.08,0,0,0-.37.82,1,1,0,0,0,.15.52,1.16,1.16,0,0,0,.47.4,5.25,5.25,0,0,0,1.14.35,7.29,7.29,0,0,1,1.32.38,2,2,0,0,1,.87.73A2.23,2.23,0,0,1,17,80.24a2.65,2.65,0,0,1-1.87.69,2.74,2.74,0,0,1-1.87-.76l-.52.69h-.33V78.27h.39q.58,2.22,2.36,2.22a1.65,1.65,0,0,0,1.13-.36,1.14,1.14,0,0,0,.4-.89,1.06,1.06,0,0,0-.18-.63,1.23,1.23,0,0,0-.55-.41,8.37,8.37,0,0,0-1-.27,6,6,0,0,1-1.55-.53,1.78,1.78,0,0,1-.68-.67,2,2,0,0,1-.22-1,2.11,2.11,0,0,1,.6-1.56,2.18,2.18,0,0,1,1.61-.6A2.63,2.63,0,0,1,16.5,74.34Z"/><path class="cls-2" d="M18.52,73.8h5.74l.15,2.66H24a5.2,5.2,0,0,0-.37-1.33,1.67,1.67,0,0,0-.52-.68,1.1,1.1,0,0,0-.64-.2.41.41,0,0,0-.29.09.33.33,0,0,0-.09.25V80a.36.36,0,0,0,.09.26.29.29,0,0,0,.22.1h.75v.44H19.63v-.44h.71a.33.33,0,0,0,.25-.1.36.36,0,0,0,.09-.26V74.62a.37.37,0,0,0-.1-.28.43.43,0,0,0-.3-.09q-1.13,0-1.53,2.21h-.39Z"/><path class="cls-2" d="M25,73.8h3.36v.44h-.61a.41.41,0,0,0-.28.08.32.32,0,0,0-.09.24V80a.34.34,0,0,0,.09.27.51.51,0,0,0,.35.1h.54v.44H25v-.44h.51a.58.58,0,0,0,.38-.09A.35.35,0,0,0,26,80V74.63a.39.39,0,0,0-.1-.29.44.44,0,0,0-.31-.09H25Z"/><path class="cls-2" d="M29.11,73.8h5.74L35,76.46h-.4a5.2,5.2,0,0,0-.37-1.33,1.67,1.67,0,0,0-.52-.68,1.1,1.1,0,0,0-.64-.2.41.41,0,0,0-.29.09.33.33,0,0,0-.09.25V80a.36.36,0,0,0,.09.26.29.29,0,0,0,.22.1h.75v.44H30.23v-.44h.71a.33.33,0,0,0,.25-.1.36.36,0,0,0,.09-.26V74.62a.37.37,0,0,0-.1-.28.43.43,0,0,0-.3-.09q-1.13,0-1.53,2.21H29Z"/><path class="cls-2" d="M35.5,73.8h3.3v.44h-.67a.27.27,0,0,0-.22.1.49.49,0,0,0-.08.31v3.87a1.77,1.77,0,0,0,.41,1.26,1.46,1.46,0,0,0,1.13.44,1.93,1.93,0,0,0,1-.24,1.32,1.32,0,0,0,.52-.59,2.35,2.35,0,0,0,.2-1v-3a1.31,1.31,0,0,0-.24-.85.79.79,0,0,0-.64-.28h-.1V73.8h2.5v.44H42.4a.66.66,0,0,0-.59.31,1.4,1.4,0,0,0-.2.78v3.22a2.29,2.29,0,0,1-.67,1.73,2.57,2.57,0,0,1-1.86.66,3.43,3.43,0,0,1-1.47-.3,1.92,1.92,0,0,1-.89-.76,2.49,2.49,0,0,1-.26-1.23V74.72a.55.55,0,0,0-.1-.38.48.48,0,0,0-.35-.1H35.5Z"/><path class="cls-2" d="M43.24,73.8H49l.15,2.66h-.4a5.2,5.2,0,0,0-.37-1.33,1.67,1.67,0,0,0-.52-.68,1.1,1.1,0,0,0-.64-.2.41.41,0,0,0-.29.09.33.33,0,0,0-.09.25V80a.36.36,0,0,0,.09.26.29.29,0,0,0,.22.1h.75v.44H44.36v-.44h.71a.33.33,0,0,0,.25-.1.36.36,0,0,0,.09-.26V74.62a.37.37,0,0,0-.1-.28.43.43,0,0,0-.3-.09q-1.13,0-1.53,2.21H43.1Z"/><path class="cls-2" d="M53.11,73.62a3.22,3.22,0,0,1,1.71.48A3.31,3.31,0,0,1,56,75.4a3.91,3.91,0,0,1,.44,1.86,3.73,3.73,0,0,1-1,2.62,3.26,3.26,0,0,1-4.09.57,3.4,3.4,0,0,1-1.19-1.29,3.93,3.93,0,0,1-.43-1.88,3.73,3.73,0,0,1,1-2.63A3.08,3.08,0,0,1,53.11,73.62Zm0,.45a1.43,1.43,0,0,0-.92.31,2.08,2.08,0,0,0-.62,1,6.24,6.24,0,0,0-.23,1.89,6.57,6.57,0,0,0,.21,1.91,1.92,1.92,0,0,0,.61,1,1.5,1.5,0,0,0,.94.31,1.45,1.45,0,0,0,1.27-.73,4.87,4.87,0,0,0,.47-2.52,6.55,6.55,0,0,0-.2-1.89,1.86,1.86,0,0,0-.61-.94A1.5,1.5,0,0,0,53.13,74.08Z"/><path class="cls-2" d="M60.39,73.8h3.53a3.23,3.23,0,0,1,1.69.44,3,3,0,0,1,1.14,1.24,3.91,3.91,0,0,1,.41,1.81,4.11,4.11,0,0,1-.38,1.82,2.93,2.93,0,0,1-1.13,1.23,3,3,0,0,1-1.61.46H60.39v-.44h.55a.38.38,0,0,0,.3-.12.47.47,0,0,0,.1-.32V74.65a.4.4,0,0,0-.11-.31.53.53,0,0,0-.36-.1h-.48Zm3.23,6.56A1.84,1.84,0,0,0,64.7,80a1.82,1.82,0,0,0,.68-.89,5.44,5.44,0,0,0,.21-1.75,5.77,5.77,0,0,0-.25-1.91,1.88,1.88,0,0,0-.67-.95,2.23,2.23,0,0,0-1.24-.28,1.17,1.17,0,0,0-.56.08.34.34,0,0,0-.11.29v5.3a.52.52,0,0,0,.09.34.37.37,0,0,0,.29.1Z"/><path class="cls-2" d="M67.93,73.8h5.71l.13,2.45h-.39A4.16,4.16,0,0,0,73,75a1.39,1.39,0,0,0-.54-.57,1.77,1.77,0,0,0-.88-.19h-.9a.43.43,0,0,0-.3.09.32.32,0,0,0-.09.24V77h.31a1,1,0,0,0,.82-.32,1.72,1.72,0,0,0,.34-1h.4v3.25h-.4a1.88,1.88,0,0,0-.33-1.14,1.12,1.12,0,0,0-.88-.33h-.25V80a.29.29,0,0,0,.09.24.68.68,0,0,0,.41.1h.79A1.73,1.73,0,0,0,73,79.8a2.86,2.86,0,0,0,.64-1.67H74l-.1,2.66h-6v-.44h.59a.37.37,0,0,0,.41-.4V74.57a.3.3,0,0,0-.1-.25.64.64,0,0,0-.37-.08h-.52Z"/><path class="cls-2" d="M78.32,72.4h4.61a2.64,2.64,0,0,1,1.88.67,2.16,2.16,0,0,1,.71,1.64A2.1,2.1,0,0,1,85.12,76a2.32,2.32,0,0,1-1.11.8,4,4,0,0,1-1.38.25H81.17v2.74a.48.48,0,0,0,.12.35.42.42,0,0,0,.31.12h.9v.53H78.32v-.53H79a.47.47,0,0,0,.35-.12.49.49,0,0,0,.12-.35v-6.4a.47.47,0,0,0-.12-.34.4.4,0,0,0-.3-.12h-.76Zm2.85,4.14h1a1.76,1.76,0,0,0,.91-.23,1.4,1.4,0,0,0,.56-.56,2.53,2.53,0,0,0,.17-1.08,1.76,1.76,0,0,0-.52-1.44,2.11,2.11,0,0,0-1.29-.3,1.46,1.46,0,0,0-.67.09.36.36,0,0,0-.14.32Z"/><path class="cls-2" d="M86.45,73.8h3.43a3.44,3.44,0,0,1,1.36.23,1.72,1.72,0,0,1,.78.62,1.57,1.57,0,0,1,.26.88,1.48,1.48,0,0,1-.65,1.25,3.13,3.13,0,0,1-1.52.47,2,2,0,0,1,.79.29,1.7,1.7,0,0,1,.49.59,5.1,5.1,0,0,1,.46,1.22,2.09,2.09,0,0,0,.2.58.24.24,0,0,0,.19.12q.29,0,.35-.83H93a2.12,2.12,0,0,1-.37,1.26,1.14,1.14,0,0,1-2-.34,7,7,0,0,1-.22-1A6.51,6.51,0,0,0,90.12,78a1,1,0,0,0-.34-.45.87.87,0,0,0-.51-.15h-.48V80a.34.34,0,0,0,.09.26.45.45,0,0,0,.31.12h.59v.44H86.45v-.44H87a.39.39,0,0,0,.3-.11.44.44,0,0,0,.1-.31V74.66a.46.46,0,0,0-.09-.32.34.34,0,0,0-.27-.1h-.56ZM88.78,77h.55a1.63,1.63,0,0,0,1.16-.4,1.4,1.4,0,0,0,.32-1,1.33,1.33,0,0,0-.31-1,1.54,1.54,0,0,0-1.09-.31.89.89,0,0,0-.52.1.61.61,0,0,0-.11.43Z"/><path class="cls-2" d="M93.64,73.8h5.71l.13,2.45h-.39A4.16,4.16,0,0,0,98.75,75a1.4,1.4,0,0,0-.54-.57,1.77,1.77,0,0,0-.88-.19h-.9a.43.43,0,0,0-.3.09.32.32,0,0,0-.09.24V77h.31a1,1,0,0,0,.82-.32,1.72,1.72,0,0,0,.34-1h.4v3.25h-.4a1.88,1.88,0,0,0-.33-1.14,1.12,1.12,0,0,0-.88-.33H96V80a.29.29,0,0,0,.09.24.68.68,0,0,0,.41.1h.79a1.73,1.73,0,0,0,1.33-.55,2.86,2.86,0,0,0,.64-1.67h.4l-.1,2.66h-6v-.44h.59a.4.4,0,0,0,.3-.11.41.41,0,0,0,.1-.29V74.57a.3.3,0,0,0-.1-.25.64.64,0,0,0-.37-.08h-.52Z"/><path class="cls-2" d="M100.11,73.8h3.21v.44H103a1,1,0,0,0-.48.08.23.23,0,0,0-.12.2,1.27,1.27,0,0,0,.1.38l1.65,4.24,1.35-3.62a2,2,0,0,0,.13-.68.57.57,0,0,0-.16-.44.71.71,0,0,0-.5-.15h-.3V73.8h2.54v.44H107a.62.62,0,0,0-.44.18,1.75,1.75,0,0,0-.37.64L104,80.95h-.53L101,74.76a.86.86,0,0,0-.28-.42.93.93,0,0,0-.5-.1h-.14Z"/><path class="cls-2" d="M107.44,73.8h3.36v.44h-.61a.41.41,0,0,0-.28.08.32.32,0,0,0-.09.24V80a.34.34,0,0,0,.09.27.51.51,0,0,0,.35.1h.54v.44h-3.36v-.44H108a.58.58,0,0,0,.37-.09.35.35,0,0,0,.11-.28V74.63a.39.39,0,0,0-.1-.29.44.44,0,0,0-.31-.09h-.59Z"/><path class="cls-2" d="M115.64,74.34l.41-.62h.31l0,2.42H116a3.34,3.34,0,0,0-.88-1.56,1.84,1.84,0,0,0-1.26-.52,1.36,1.36,0,0,0-1,.34,1.08,1.08,0,0,0-.37.82,1,1,0,0,0,.15.52,1.16,1.16,0,0,0,.47.4,5.25,5.25,0,0,0,1.14.35,7.29,7.29,0,0,1,1.32.38,2,2,0,0,1,.87.73,2.23,2.23,0,0,1-.34,2.65,2.65,2.65,0,0,1-1.87.69,2.74,2.74,0,0,1-1.87-.76l-.52.69h-.33V78.27h.39q.58,2.22,2.36,2.22a1.65,1.65,0,0,0,1.13-.36,1.14,1.14,0,0,0,.4-.89,1.06,1.06,0,0,0-.18-.63,1.22,1.22,0,0,0-.55-.41,8.38,8.38,0,0,0-1-.27,6,6,0,0,1-1.55-.53,1.78,1.78,0,0,1-.68-.67,2,2,0,0,1-.22-1,2.11,2.11,0,0,1,.6-1.56,2.18,2.18,0,0,1,1.61-.6A2.62,2.62,0,0,1,115.64,74.34Z"/><path class="cls-2" d="M117.54,73.8h3.36v.44h-.61a.41.41,0,0,0-.28.08.32.32,0,0,0-.09.24V80a.34.34,0,0,0,.09.27.51.51,0,0,0,.35.1h.54v.44h-3.36v-.44h.52a.58.58,0,0,0,.37-.09.35.35,0,0,0,.11-.28V74.63a.39.39,0,0,0-.1-.29.44.44,0,0,0-.31-.09h-.59Z"/><path class="cls-2" d="M125,73.62a3.22,3.22,0,0,1,1.71.48,3.31,3.31,0,0,1,1.22,1.3,3.91,3.91,0,0,1,.44,1.86,3.73,3.73,0,0,1-1,2.62,3.26,3.26,0,0,1-4.09.57,3.4,3.4,0,0,1-1.19-1.29,3.92,3.92,0,0,1-.43-1.88,3.73,3.73,0,0,1,1-2.63A3.08,3.08,0,0,1,125,73.62Zm0,.45a1.42,1.42,0,0,0-.92.31,2.08,2.08,0,0,0-.62,1,6.23,6.23,0,0,0-.23,1.89,6.56,6.56,0,0,0,.21,1.91,1.92,1.92,0,0,0,.61,1,1.5,1.5,0,0,0,.94.31,1.45,1.45,0,0,0,1.27-.73,4.86,4.86,0,0,0,.48-2.52,6.54,6.54,0,0,0-.2-1.89,1.87,1.87,0,0,0-.61-.94A1.5,1.5,0,0,0,125,74.08Zm-.69-.81-.12-.11.72-1.09q.34-.52.7-.52a.51.51,0,0,1,.36.16.47.47,0,0,1,.16.33.51.51,0,0,1-.12.33,1.62,1.62,0,0,1-.53.34Z"/><path class="cls-2" d="M129.14,73.8h2l3.55,4.8V75.34a1.12,1.12,0,0,0-.26-.77,1,1,0,0,0-.73-.32V73.8h2.4v.44a1,1,0,0,0-.72.32,1.19,1.19,0,0,0-.22.78v5.46h-.51l-4-5.52V79.1a1.37,1.37,0,0,0,.28,1,.92.92,0,0,0,.7.3h.11v.44h-2.65v-.44h.18a.81.81,0,0,0,.66-.33,1.31,1.31,0,0,0,.27-.85V74.66a.9.9,0,0,0-.76-.42h-.29Z"/><path class="cls-2" d="M29,84.13l.49-.75h.38l0,2.9h-.48a4,4,0,0,0-1.06-1.87,2.21,2.21,0,0,0-1.52-.62,1.63,1.63,0,0,0-1.15.41,1.29,1.29,0,0,0-.44,1,1.16,1.16,0,0,0,.18.62,1.39,1.39,0,0,0,.57.48,6.27,6.27,0,0,0,1.37.42,8.74,8.74,0,0,1,1.58.46A2.43,2.43,0,0,1,30,88a2.67,2.67,0,0,1-.4,3.17,3.18,3.18,0,0,1-2.24.83,3.29,3.29,0,0,1-2.25-.91l-.62.83h-.39V88.85h.47q.7,2.66,2.83,2.66a2,2,0,0,0,1.36-.43A1.37,1.37,0,0,0,29.25,90a1.28,1.28,0,0,0-.21-.75,1.47,1.47,0,0,0-.66-.49,10.21,10.21,0,0,0-1.21-.32,7.22,7.22,0,0,1-1.86-.63,2.13,2.13,0,0,1-.82-.8,2.36,2.36,0,0,1-.26-1.15A2.53,2.53,0,0,1,25,84a2.61,2.61,0,0,1,1.94-.72A3.15,3.15,0,0,1,29,84.13Z"/><path class="cls-2" d="M34.66,84.71a3.22,3.22,0,0,1,1.71.48,3.31,3.31,0,0,1,1.22,1.3A3.91,3.91,0,0,1,38,88.35a3.73,3.73,0,0,1-1,2.62,3.26,3.26,0,0,1-4.09.57,3.4,3.4,0,0,1-1.19-1.29,3.93,3.93,0,0,1-.43-1.88,3.73,3.73,0,0,1,1-2.63A3.08,3.08,0,0,1,34.66,84.71Zm0,.45a1.42,1.42,0,0,0-.92.31,2.08,2.08,0,0,0-.62,1,6.24,6.24,0,0,0-.23,1.89,6.57,6.57,0,0,0,.21,1.91,1.92,1.92,0,0,0,.61,1,1.5,1.5,0,0,0,.94.31A1.45,1.45,0,0,0,36,90.82a4.87,4.87,0,0,0,.47-2.52,6.55,6.55,0,0,0-.2-1.89,1.87,1.87,0,0,0-.61-.94A1.5,1.5,0,0,0,34.68,85.16Z"/><path class="cls-2" d="M44.09,85.41l.31-.7h.33l.11,2.8h-.41a3.46,3.46,0,0,0-.72-1.8,1.59,1.59,0,0,0-1.21-.59,1.44,1.44,0,0,0-1.23.76,4.52,4.52,0,0,0-.49,2.39,4.83,4.83,0,0,0,.54,2.56,1.42,1.42,0,0,0,1.27.66A1.8,1.8,0,0,0,44,90.84a2.9,2.9,0,0,0,.58-1.41H45a3,3,0,0,1-.86,1.89,2.42,2.42,0,0,1-1.76.69,2.92,2.92,0,0,1-2.26-1,3.74,3.74,0,0,1-.91-2.6,3.79,3.79,0,0,1,1.05-2.81,2.88,2.88,0,0,1,2.1-.89,2.4,2.4,0,0,1,.88.16A3.25,3.25,0,0,1,44.09,85.41Z"/><path class="cls-2" d="M45.87,84.88h3.36v.44h-.61a.41.41,0,0,0-.28.08.32.32,0,0,0-.09.24v5.42a.34.34,0,0,0,.09.27.51.51,0,0,0,.35.1h.54v.44H45.87v-.44h.51a.58.58,0,0,0,.37-.09.35.35,0,0,0,.11-.28V85.71a.39.39,0,0,0-.1-.29.44.44,0,0,0-.31-.09h-.59Z"/><path class="cls-2" d="M53.27,84.71,55.73,91a.85.85,0,0,0,.23.36.53.53,0,0,0,.33.09h.24v.44H53.45v-.44h.29a1,1,0,0,0,.47-.08.24.24,0,0,0,.13-.21.68.68,0,0,0-.05-.24l-.51-1.3H51.32l-.23.59a1.68,1.68,0,0,0-.15.55.64.64,0,0,0,.21.5.84.84,0,0,0,.58.19h.21v.44H49.45v-.44h.14a.62.62,0,0,0,.42-.16,1.5,1.5,0,0,0,.4-.58l2.35-6Zm-.71,1.77L51.5,89.15H53.6Z"/><path class="cls-2" d="M56.84,85.32v-.44h3.37v.44h-.57a.47.47,0,0,0-.34.1.45.45,0,0,0-.1.32v5.2a.59.59,0,0,0,.09.4.71.71,0,0,0,.44.09h.95a1.3,1.3,0,0,0,1-.53,3.86,3.86,0,0,0,.7-1.71h.4l-.15,2.68H56.84v-.44h.58a.38.38,0,0,0,.29-.1.41.41,0,0,0,.1-.29V85.69a.36.36,0,0,0-.1-.28.53.53,0,0,0-.34-.09Z"/><path class="cls-2" d="M66.5,83.48h3.17l1.79,5.69,1.78-5.69h3.25V84h-.71a.38.38,0,0,0-.46.45v6.41a.43.43,0,0,0,.11.33.65.65,0,0,0,.43.14h.63v.53h-4v-.53h.76a.4.4,0,0,0,.32-.12.51.51,0,0,0,.11-.35V84l-2.5,7.87h-.47L68.2,83.94v6.14a1.22,1.22,0,0,0,.31.87,1.41,1.41,0,0,0,.91.41v.53H66.5v-.53a1.22,1.22,0,0,0,.86-.41,1.39,1.39,0,0,0,.31-.93V84.59a.68.68,0,0,0-.11-.46.61.61,0,0,0-.43-.11H66.5Z"/><path class="cls-2" d="M77.19,84.88h3.36v.44h-.61a.41.41,0,0,0-.28.08.32.32,0,0,0-.09.24v5.42a.34.34,0,0,0,.09.27.51.51,0,0,0,.35.1h.54v.44H77.19v-.44h.51a.58.58,0,0,0,.37-.09.35.35,0,0,0,.11-.28V85.71a.39.39,0,0,0-.1-.29.44.44,0,0,0-.31-.09h-.59Z"/><path class="cls-2" d="M81.26,85.32v-.44h3.37v.44h-.57a.47.47,0,0,0-.34.1.45.45,0,0,0-.1.32v5.2a.59.59,0,0,0,.09.4.71.71,0,0,0,.44.09h.94a1.3,1.3,0,0,0,1-.53,3.86,3.86,0,0,0,.7-1.71h.4L87,91.88H81.26v-.44h.58a.38.38,0,0,0,.29-.1.41.41,0,0,0,.1-.29V85.69a.36.36,0,0,0-.1-.28.52.52,0,0,0-.34-.09Z"/><path class="cls-2" d="M87.78,84.88h3.36v.44h-.61a.41.41,0,0,0-.28.08.32.32,0,0,0-.09.24v5.42a.34.34,0,0,0,.09.27.51.51,0,0,0,.35.1h.54v.44H87.78v-.44h.51a.58.58,0,0,0,.37-.09.35.35,0,0,0,.11-.28V85.71a.39.39,0,0,0-.1-.29.44.44,0,0,0-.31-.09h-.59Z"/><path class="cls-2" d="M91.93,84.88h5.74l.15,2.66h-.4A5.22,5.22,0,0,0,97,86.21a1.68,1.68,0,0,0-.52-.68,1.1,1.1,0,0,0-.64-.2.42.42,0,0,0-.29.09.33.33,0,0,0-.09.25v5.41a.37.37,0,0,0,.09.26.29.29,0,0,0,.22.1h.75v.44H93v-.44h.71a.33.33,0,0,0,.25-.1.36.36,0,0,0,.09-.26V85.7a.37.37,0,0,0-.1-.28.43.43,0,0,0-.3-.09q-1.13,0-1.53,2.21h-.39Z"/><path class="cls-2" d="M101.74,84.71,104.2,91a.85.85,0,0,0,.23.36.53.53,0,0,0,.33.09H105v.44h-3.08v-.44h.29a1,1,0,0,0,.47-.08.24.24,0,0,0,.13-.21.67.67,0,0,0-.05-.24l-.51-1.3H99.79l-.23.59a1.69,1.69,0,0,0-.15.55.64.64,0,0,0,.21.5.84.84,0,0,0,.58.19h.21v.44H97.92v-.44h.14a.62.62,0,0,0,.42-.16,1.51,1.51,0,0,0,.4-.58l2.35-6ZM101,86.48,100,89.15h2.09Z"/><path class="cls-2" d="M105.47,84.88h3.43a3.44,3.44,0,0,1,1.36.23,1.72,1.72,0,0,1,.78.62,1.57,1.57,0,0,1,.26.88,1.48,1.48,0,0,1-.65,1.25,3.13,3.13,0,0,1-1.52.47,2,2,0,0,1,.79.29,1.7,1.7,0,0,1,.49.59,5.1,5.1,0,0,1,.46,1.22,2.08,2.08,0,0,0,.2.58.24.24,0,0,0,.19.12q.29,0,.35-.83H112a2.12,2.12,0,0,1-.37,1.26,1.14,1.14,0,0,1-2-.34,7,7,0,0,1-.22-1,6.51,6.51,0,0,0-.3-1.18,1,1,0,0,0-.34-.45.87.87,0,0,0-.51-.15h-.48v2.58a.34.34,0,0,0,.09.26.45.45,0,0,0,.31.12h.59v.44h-3.32v-.44H106a.39.39,0,0,0,.3-.11.44.44,0,0,0,.1-.31V85.74a.46.46,0,0,0-.09-.32.34.34,0,0,0-.27-.1h-.56Zm2.32,3.17h.55a1.62,1.62,0,0,0,1.16-.4,1.4,1.4,0,0,0,.32-1,1.33,1.33,0,0,0-.31-1,1.54,1.54,0,0,0-1.09-.31.89.89,0,0,0-.52.1.61.61,0,0,0-.11.43Z"/></g></g></svg>