<svg xmlns="http://www.w3.org/2000/svg" viewBox="0 0 231.06 156.36"><defs><style>.cls-1{fill:#a8bf34;}.cls-1,.cls-3{fill-rule:evenodd;}.cls-2,.cls-3{fill:#211915;}</style></defs><title>Asset 3</title><g id="Layer_2" data-name="Layer 2"><g id="_1" data-name="1"><path class="cls-1" d="M115.52,0A54.87,54.87,0,1,1,60.69,54.87,54.85,54.85,0,0,1,115.52,0"/><path class="cls-2" d="M35.6,7H61.91v3.79H57.16a3,3,0,0,0-2.22.72,2.89,2.89,0,0,0-.7,2.1V60.37A3.06,3.06,0,0,0,55,62.69a3.73,3.73,0,0,0,2.7.91h4.23v3.79H35.6V63.6h4a4.18,4.18,0,0,0,2.93-.82,3.19,3.19,0,0,0,.85-2.41V14.18a3.56,3.56,0,0,0-.78-2.53,3.27,3.27,0,0,0-2.45-.82H35.6Z"/><path class="cls-3" d="M82.7,36.78h6.55a11.21,11.21,0,0,0,6.09-1.67A9.79,9.79,0,0,0,99.14,31q1.12-2.38,1.12-7.73Q100.26,16,96.8,13c-1.7-1.45-4.58-2.16-8.65-2.16-2.37,0-3.85.22-4.49.67a2.61,2.61,0,0,0-1,2.3ZM87.74,7H94.5q7.87,0,12.65,4.82a16,16,0,0,1,4.79,11.78,15.61,15.61,0,0,1-10.21,15,25.53,25.53,0,0,1-9.24,1.8H82.7V60.14a3.6,3.6,0,0,0,.83,2.53,2.73,2.73,0,0,0,2.11.9h6.08v3.79H63.55V63.58h4.72a3,3,0,0,0,2.38-.9,3.67,3.67,0,0,0,.81-2.53l.1-37.29C79.08,11.36,80.68,13.33,87.74,7ZM63.55,7H83.14a39.05,39.05,0,0,0-11.68,11.8V14.19a3.47,3.47,0,0,0-.83-2.45,2.61,2.61,0,0,0-2-.9H63.55Z"/><path class="cls-2" d="M123.51,47.28l3-5.42h2.27l.3,20.95h-2.88q-2.24-9-6.37-13.5t-9.12-4.49a8.86,8.86,0,0,0-6.92,3,10.26,10.26,0,0,0-2.68,7.11,9.61,9.61,0,0,0,1.06,4.51,9,9,0,0,0,3.41,3.51,33.31,33.31,0,0,0,8.23,3,46.45,46.45,0,0,1,9.5,3.32,15.79,15.79,0,0,1,6.25,6.3,20.13,20.13,0,0,1,2.07,9.53q0,8.42-4.51,13.41a17.42,17.42,0,0,1-13.46,6q-7.4,0-13.51-6.6l-3.75,6H94.05V81.42h2.77q4.19,19.23,17,19.23c3.49,0,6.21-1,8.16-3.09a10.81,10.81,0,0,0,2.92-7.72,10.63,10.63,0,0,0-1.28-5.43,9.32,9.32,0,0,0-4-3.55,54.79,54.79,0,0,0-7.29-2.34q-7.83-2.2-11.18-4.56a14.34,14.34,0,0,1-4.9-5.78,19.91,19.91,0,0,1-1.57-8.34q0-8.29,4.33-13.52a14.34,14.34,0,0,1,11.63-5.22q7,0,12.83,6.19"/><path class="cls-3" d="M153.58,103.57v.8h-.77Zm13.65-24h0c.45-1.5.82-2.95,1.1-4.28h0l8.77-34.05h20v4h-4.33a2.69,2.69,0,0,0-2.21.77,4.4,4.4,0,0,0-.6,2.65V96.85a3.6,3.6,0,0,0,.66,2.52,3.48,3.48,0,0,0,2.65,1h3.84v4H172.45v-4h4.65a2.26,2.26,0,0,0,2-.95,4.4,4.4,0,0,0,.67-2.61V45.23l-15.47,59.14h-2.89l-1.84-7.15h0A80,80,0,0,0,167.24,79.61ZM135.59,41.26h19.53L165.19,78.1c-1.93,4.94-5.69,8.41-7.49,12l.25,1L146,44.72V90.84A10.44,10.44,0,0,0,148,97.35a7.72,7.72,0,0,0,4.28,2.79l0,.06h0l-.05.07-.05.07-.09.12v0h0l0,.06-.15.19h0l-.05.07-.21.27-.05.07,0,0-.09.11,0,0,0,0-.55.66h0l-.11.13,0,0,0,0h0l-.1.12-.06.07-.33.38,0,0q-.68.77-1.4,1.53h-13v-4a7.12,7.12,0,0,0,5.29-3.12,12,12,0,0,0,1.88-7V49.54a5.93,5.93,0,0,0-.68-3.45,3.32,3.32,0,0,0-2.66-.86h-3.83Z"/><path class="cls-2" d="M0,123H6.85v.9H5.61A.83.83,0,0,0,5,124a.65.65,0,0,0-.18.5v11a.69.69,0,0,0,.19.55,1,1,0,0,0,.7.21h1.1v.9H0v-.9H1a1.17,1.17,0,0,0,.76-.19.71.71,0,0,0,.22-.57V124.67a.79.79,0,0,0-.2-.6.9.9,0,0,0-.64-.19H0Z"/><path class="cls-2" d="M8.1,125.36h3.46l6,8.15V128a1.91,1.91,0,0,0-.44-1.31,1.74,1.74,0,0,0-1.24-.55v-.75H20v.75a1.77,1.77,0,0,0-1.22.54,2,2,0,0,0-.37,1.32v9.27h-.87l-6.86-9.37v6.49a2.32,2.32,0,0,0,.48,1.63,1.56,1.56,0,0,0,1.19.51h.19v.75H8v-.75h.31a1.38,1.38,0,0,0,1.11-.56,2.23,2.23,0,0,0,.45-1.44v-7.67a1.52,1.52,0,0,0-1.29-.71H8.1Z"/><path class="cls-2" d="M28,126.27l.7-1.06h.53l.07,4.11h-.68a5.67,5.67,0,0,0-1.5-2.65,3.13,3.13,0,0,0-2.15-.88,2.3,2.3,0,0,0-1.63.58,1.83,1.83,0,0,0-.63,1.39,1.65,1.65,0,0,0,.25.88,2,2,0,0,0,.8.69,8.9,8.9,0,0,0,1.94.59,12.39,12.39,0,0,1,2.24.65,3.44,3.44,0,0,1,1.47,1.23,3.79,3.79,0,0,1-.57,4.49,4.5,4.5,0,0,1-3.17,1.18,4.65,4.65,0,0,1-3.18-1.29l-.88,1.17h-.56V133h.66q1,3.77,4,3.77a2.8,2.8,0,0,0,1.92-.61,1.94,1.94,0,0,0,.68-1.51,1.81,1.81,0,0,0-.3-1.06,2.08,2.08,0,0,0-.93-.69,14.22,14.22,0,0,0-1.71-.46,10.21,10.21,0,0,1-2.63-.9,3,3,0,0,1-1.16-1.13,3.35,3.35,0,0,1-.37-1.63,3.58,3.58,0,0,1,1-2.65,3.69,3.69,0,0,1,2.74-1A4.46,4.46,0,0,1,28,126.27Z"/><path class="cls-2" d="M31.43,125.36h9.74l.25,4.51h-.69a8.84,8.84,0,0,0-.63-2.26,2.84,2.84,0,0,0-.88-1.15,1.86,1.86,0,0,0-1.08-.34.7.7,0,0,0-.5.15.56.56,0,0,0-.16.43v9.19a.62.62,0,0,0,.15.43.49.49,0,0,0,.37.17h1.27v.75h-6v-.75h1.2a.57.57,0,0,0,.43-.16.61.61,0,0,0,.16-.44v-9.14a.62.62,0,0,0-.16-.47.72.72,0,0,0-.51-.15q-1.92,0-2.6,3.75h-.66Z"/><path class="cls-2" d="M42.37,125.36h5.71v.75H47a.69.69,0,0,0-.48.14.54.54,0,0,0-.15.41v9.2a.58.58,0,0,0,.16.46.87.87,0,0,0,.59.18h.92v.75H42.37v-.75h.87a1,1,0,0,0,.64-.16.6.6,0,0,0,.18-.47v-9.09a.66.66,0,0,0-.17-.5.75.75,0,0,0-.53-.16h-1Z"/><path class="cls-2" d="M49.41,125.36h9.74l.25,4.51h-.69a8.83,8.83,0,0,0-.63-2.26,2.84,2.84,0,0,0-.88-1.15,1.86,1.86,0,0,0-1.08-.34.7.7,0,0,0-.5.15.56.56,0,0,0-.16.43v9.19a.62.62,0,0,0,.15.43.49.49,0,0,0,.37.17h1.27v.75h-6v-.75h1.2a.57.57,0,0,0,.43-.16.61.61,0,0,0,.16-.44v-9.14a.62.62,0,0,0-.16-.47.72.72,0,0,0-.51-.15q-1.92,0-2.6,3.75h-.66Z"/><path class="cls-2" d="M60.26,125.36h5.6v.75H64.73a.45.45,0,0,0-.38.17.84.84,0,0,0-.14.53v6.57a3,3,0,0,0,.69,2.13,2.48,2.48,0,0,0,1.91.74,3.27,3.27,0,0,0,1.63-.41,2.24,2.24,0,0,0,.88-1,4,4,0,0,0,.34-1.76v-5a2.22,2.22,0,0,0-.4-1.45,1.34,1.34,0,0,0-1.08-.48H68v-.75h4.25v.75H72a1.13,1.13,0,0,0-1,.54,2.38,2.38,0,0,0-.35,1.32v5.47a3.9,3.9,0,0,1-1.14,2.93,4.35,4.35,0,0,1-3.16,1.12,5.82,5.82,0,0,1-2.5-.5,3.26,3.26,0,0,1-1.51-1.29,4.24,4.24,0,0,1-.45-2.09v-6.68a.93.93,0,0,0-.17-.64.81.81,0,0,0-.59-.17h-.82Z"/><path class="cls-2" d="M73.39,125.36h9.74l.25,4.51h-.69a8.83,8.83,0,0,0-.63-2.26,2.84,2.84,0,0,0-.88-1.15,1.86,1.86,0,0,0-1.08-.34.7.7,0,0,0-.5.15.56.56,0,0,0-.16.43v9.19a.62.62,0,0,0,.15.43.49.49,0,0,0,.37.17h1.27v.75h-6v-.75h1.2a.57.57,0,0,0,.43-.16.61.61,0,0,0,.16-.44v-9.14a.62.62,0,0,0-.16-.47.72.72,0,0,0-.51-.15q-1.92,0-2.6,3.75h-.66Z"/><path class="cls-2" d="M90.14,125.06a5.47,5.47,0,0,1,2.9.81,5.62,5.62,0,0,1,2.07,2.21,6.65,6.65,0,0,1,.74,3.16,6.34,6.34,0,0,1-1.64,4.46,5.53,5.53,0,0,1-6.95,1,5.78,5.78,0,0,1-2-2.19,6.67,6.67,0,0,1-.74-3.2,6.33,6.33,0,0,1,1.62-4.46A5.23,5.23,0,0,1,90.14,125.06Zm0,.77a2.42,2.42,0,0,0-1.55.53,3.53,3.53,0,0,0-1,1.7,10.6,10.6,0,0,0-.39,3.21,11.17,11.17,0,0,0,.36,3.25,3.26,3.26,0,0,0,1,1.63,2.54,2.54,0,0,0,1.6.53,2.47,2.47,0,0,0,2.15-1.23,8.27,8.27,0,0,0,.81-4.28,11.13,11.13,0,0,0-.35-3.21,3.17,3.17,0,0,0-1-1.6A2.54,2.54,0,0,0,90.18,125.83Z"/><path class="cls-2" d="M102.51,125.36h6a5.49,5.49,0,0,1,2.87.74,5.1,5.1,0,0,1,1.94,2.1,6.65,6.65,0,0,1,.7,3.08,7,7,0,0,1-.64,3.09,5,5,0,0,1-1.91,2.09,5.15,5.15,0,0,1-2.73.78h-6.21v-.75h.93a.65.65,0,0,0,.51-.2.8.8,0,0,0,.17-.55v-8.95a.68.68,0,0,0-.18-.53.89.89,0,0,0-.61-.17h-.82ZM108,136.49a3.13,3.13,0,0,0,1.83-.55,3.1,3.1,0,0,0,1.15-1.52,9.25,9.25,0,0,0,.35-3,9.8,9.8,0,0,0-.42-3.25,3.19,3.19,0,0,0-1.13-1.61,3.79,3.79,0,0,0-2.1-.48,2,2,0,0,0-1,.14.57.57,0,0,0-.19.5v9a.88.88,0,0,0,.15.58.62.62,0,0,0,.49.18Z"/><path class="cls-2" d="M115.31,125.36H125l.22,4.15h-.66a7.07,7.07,0,0,0-.58-2.12,2.37,2.37,0,0,0-.92-1,3,3,0,0,0-1.49-.32h-1.52a.73.73,0,0,0-.51.15.54.54,0,0,0-.16.41v4.12h.52a1.78,1.78,0,0,0,1.39-.55,2.93,2.93,0,0,0,.58-1.76h.68V134h-.68a3.19,3.19,0,0,0-.56-1.94,1.9,1.9,0,0,0-1.5-.56h-.43v4.39a.48.48,0,0,0,.16.41,1.16,1.16,0,0,0,.69.18h1.34a2.93,2.93,0,0,0,2.25-.94,4.87,4.87,0,0,0,1.08-2.84h.68l-.17,4.52H115.31v-.75h1a.68.68,0,0,0,.52-.18.69.69,0,0,0,.18-.5v-9.14a.5.5,0,0,0-.18-.43,1.08,1.08,0,0,0-.64-.14h-.88Z"/><path class="cls-2" d="M132.94,123h7.82a4.48,4.48,0,0,1,3.2,1.14,3.67,3.67,0,0,1,1.21,2.79,3.57,3.57,0,0,1-.7,2.19,3.94,3.94,0,0,1-1.88,1.36,6.87,6.87,0,0,1-2.34.42h-2.48v4.65a.82.82,0,0,0,.21.6.71.71,0,0,0,.53.21h1.54v.9h-7.12v-.9h1.19a.79.79,0,0,0,.6-.21.83.83,0,0,0,.2-.6V124.67a.79.79,0,0,0-.21-.58.68.68,0,0,0-.51-.21h-1.28Zm4.84,7h1.65a3,3,0,0,0,1.54-.4,2.37,2.37,0,0,0,1-1,4.3,4.3,0,0,0,.28-1.83,3,3,0,0,0-.88-2.45,3.58,3.58,0,0,0-2.19-.51A2.48,2.48,0,0,0,138,124a.61.61,0,0,0-.24.54Z"/><path class="cls-2" d="M146.74,125.36h5.81a5.83,5.83,0,0,1,2.31.39,2.92,2.92,0,0,1,1.33,1.06,2.67,2.67,0,0,1,.44,1.49,2.51,2.51,0,0,1-1.1,2.12,5.3,5.3,0,0,1-2.57.8,3.32,3.32,0,0,1,1.34.49,2.89,2.89,0,0,1,.83,1,8.67,8.67,0,0,1,.78,2.08,3.55,3.55,0,0,0,.33,1,.4.4,0,0,0,.32.2q.5,0,.59-1.41h.66a3.6,3.6,0,0,1-.63,2.14,1.94,1.94,0,0,1-3.36-.58,11.87,11.87,0,0,1-.38-1.62,11.06,11.06,0,0,0-.5-2,1.75,1.75,0,0,0-.58-.76,1.48,1.48,0,0,0-.87-.25h-.82v4.38a.59.59,0,0,0,.16.44.76.76,0,0,0,.53.2h1v.75h-5.64v-.75h.87a.66.66,0,0,0,.51-.19.75.75,0,0,0,.17-.53v-9a.78.78,0,0,0-.16-.54.58.58,0,0,0-.45-.17h-.95Zm3.95,5.39h.94a2.76,2.76,0,0,0,2-.68,2.37,2.37,0,0,0,.54-1.76,2.26,2.26,0,0,0-.53-1.67,2.61,2.61,0,0,0-1.85-.53,1.51,1.51,0,0,0-.89.17,1,1,0,0,0-.18.74Z"/><path class="cls-2" d="M158.93,125.36h9.7l.22,4.15h-.66a7.07,7.07,0,0,0-.58-2.12,2.37,2.37,0,0,0-.92-1,3,3,0,0,0-1.49-.32h-1.52a.73.73,0,0,0-.51.15.54.54,0,0,0-.16.41v4.12h.52a1.78,1.78,0,0,0,1.39-.55,2.93,2.93,0,0,0,.58-1.76h.68V134h-.68a3.19,3.19,0,0,0-.56-1.94,1.9,1.9,0,0,0-1.5-.56H163v4.39a.48.48,0,0,0,.16.41,1.16,1.16,0,0,0,.69.18h1.34a2.93,2.93,0,0,0,2.25-.94,4.87,4.87,0,0,0,1.08-2.84h.68l-.17,4.52H158.93v-.75h1a.68.68,0,0,0,.52-.18.69.69,0,0,0,.18-.5v-9.14a.5.5,0,0,0-.18-.43,1.08,1.08,0,0,0-.64-.14h-.88Z"/><path class="cls-2" d="M169.92,125.36h5.45v.75h-.6a1.69,1.69,0,0,0-.81.13.39.39,0,0,0-.2.34,2.15,2.15,0,0,0,.17.64l2.79,7.2,2.29-6.14a3.31,3.31,0,0,0,.23-1.15,1,1,0,0,0-.28-.76,1.21,1.21,0,0,0-.84-.26h-.5v-.75h4.31v.75h-.32a1.06,1.06,0,0,0-.74.31,3,3,0,0,0-.63,1.09l-3.79,10h-.9L171.47,127a1.47,1.47,0,0,0-.47-.71,1.58,1.58,0,0,0-.85-.18h-.23Z"/><path class="cls-2" d="M182.37,125.36h5.71v.75h-1a.69.69,0,0,0-.48.14.54.54,0,0,0-.15.41v9.2a.58.58,0,0,0,.16.46.87.87,0,0,0,.59.18h.92v.75h-5.71v-.75h.87a1,1,0,0,0,.64-.16.6.6,0,0,0,.18-.47v-9.09a.66.66,0,0,0-.17-.5.75.75,0,0,0-.53-.16h-1Z"/><path class="cls-2" d="M196.27,126.27l.7-1.06h.53l.07,4.11h-.68a5.67,5.67,0,0,0-1.5-2.65,3.13,3.13,0,0,0-2.15-.88,2.3,2.3,0,0,0-1.63.58,1.83,1.83,0,0,0-.63,1.39,1.65,1.65,0,0,0,.25.88,2,2,0,0,0,.8.69,8.91,8.91,0,0,0,1.94.59,12.38,12.38,0,0,1,2.24.65,3.44,3.44,0,0,1,1.47,1.23,3.79,3.79,0,0,1-.57,4.49,4.5,4.5,0,0,1-3.17,1.18,4.65,4.65,0,0,1-3.18-1.29l-.88,1.17h-.56V133H190q1,3.77,4,3.77a2.8,2.8,0,0,0,1.92-.61,1.94,1.94,0,0,0,.68-1.51,1.8,1.8,0,0,0-.3-1.06,2.08,2.08,0,0,0-.93-.69,14.23,14.23,0,0,0-1.71-.46,10.2,10.2,0,0,1-2.63-.9,3,3,0,0,1-1.16-1.13,3.35,3.35,0,0,1-.37-1.63,3.58,3.58,0,0,1,1-2.65,3.69,3.69,0,0,1,2.74-1A4.45,4.45,0,0,1,196.27,126.27Z"/><path class="cls-2" d="M199.5,125.36h5.71v.75h-1a.69.69,0,0,0-.48.14.54.54,0,0,0-.15.41v9.2a.58.58,0,0,0,.16.46.87.87,0,0,0,.59.18h.92v.75H199.5v-.75h.87a1,1,0,0,0,.64-.16.6.6,0,0,0,.18-.47v-9.09a.66.66,0,0,0-.17-.5.75.75,0,0,0-.53-.16h-1Z"/><path class="cls-2" d="M212.15,125.06a5.47,5.47,0,0,1,2.9.81,5.63,5.63,0,0,1,2.07,2.21,6.65,6.65,0,0,1,.74,3.16,6.33,6.33,0,0,1-1.64,4.46,5.53,5.53,0,0,1-7,1,5.78,5.78,0,0,1-2-2.19,6.67,6.67,0,0,1-.74-3.2,6.33,6.33,0,0,1,1.62-4.46A5.23,5.23,0,0,1,212.15,125.06Zm0,.77a2.42,2.42,0,0,0-1.55.53,3.52,3.52,0,0,0-1,1.7,10.59,10.59,0,0,0-.39,3.21,11.16,11.16,0,0,0,.36,3.25,3.26,3.26,0,0,0,1,1.63,2.54,2.54,0,0,0,1.6.53,2.46,2.46,0,0,0,2.15-1.23,8.27,8.27,0,0,0,.81-4.28,11.11,11.11,0,0,0-.35-3.21,3.17,3.17,0,0,0-1-1.6A2.54,2.54,0,0,0,212.19,125.83ZM211,124.46l-.21-.18,1.22-1.86q.58-.88,1.19-.88a.86.86,0,0,1,.61.27.79.79,0,0,1,.27.57.87.87,0,0,1-.2.57,2.76,2.76,0,0,1-.9.57Z"/><path class="cls-2" d="M219.19,125.36h3.46l6,8.15V128a1.91,1.91,0,0,0-.44-1.31,1.74,1.74,0,0,0-1.24-.55v-.75h4.07v.75a1.77,1.77,0,0,0-1.22.54,2,2,0,0,0-.37,1.32v9.27h-.87l-6.86-9.37v6.49a2.32,2.32,0,0,0,.48,1.63,1.56,1.56,0,0,0,1.19.51h.19v.75H219.1v-.75h.31a1.38,1.38,0,0,0,1.11-.56,2.23,2.23,0,0,0,.45-1.44v-7.67a1.52,1.52,0,0,0-1.29-.71h-.5Z"/><path class="cls-2" d="M49.27,142.91l.84-1.27h.64l.08,4.93H50a6.8,6.8,0,0,0-1.8-3.18,3.75,3.75,0,0,0-2.57-1.06,2.77,2.77,0,0,0-2,.7,2.2,2.2,0,0,0-.75,1.67,2,2,0,0,0,.3,1.06,2.36,2.36,0,0,0,1,.82,10.64,10.64,0,0,0,2.32.71,14.83,14.83,0,0,1,2.68.78A4.12,4.12,0,0,1,51,149.55a4.54,4.54,0,0,1-.69,5.39,5.4,5.4,0,0,1-3.8,1.42,5.58,5.58,0,0,1-3.81-1.55l-1.06,1.41h-.67v-5.28h.79q1.18,4.52,4.8,4.52a3.36,3.36,0,0,0,2.3-.73,2.33,2.33,0,0,0,.82-1.82,2.17,2.17,0,0,0-.36-1.28,2.5,2.5,0,0,0-1.12-.83,17.32,17.32,0,0,0-2.06-.55A12.25,12.25,0,0,1,43,149.17a3.62,3.62,0,0,1-1.39-1.36,4,4,0,0,1-.44-2,4.3,4.3,0,0,1,1.22-3.17,4.43,4.43,0,0,1,3.28-1.23A5.35,5.35,0,0,1,49.27,142.91Z"/><path class="cls-2" d="M58.83,143.89a5.47,5.47,0,0,1,2.9.81,5.63,5.63,0,0,1,2.07,2.21,6.65,6.65,0,0,1,.74,3.16,6.34,6.34,0,0,1-1.64,4.46,5.53,5.53,0,0,1-6.95,1,5.78,5.78,0,0,1-2-2.19,6.67,6.67,0,0,1-.74-3.2,6.33,6.33,0,0,1,1.62-4.46A5.23,5.23,0,0,1,58.83,143.89Zm0,.77a2.42,2.42,0,0,0-1.55.53,3.53,3.53,0,0,0-1,1.7,10.6,10.6,0,0,0-.39,3.21,11.17,11.17,0,0,0,.36,3.25,3.26,3.26,0,0,0,1,1.63,2.54,2.54,0,0,0,1.6.53A2.47,2.47,0,0,0,61,154.27a8.27,8.27,0,0,0,.81-4.28,11.13,11.13,0,0,0-.35-3.21,3.17,3.17,0,0,0-1-1.6A2.54,2.54,0,0,0,58.87,144.66Z"/><path class="cls-2" d="M74.83,145.08l.52-1.18h.56l.19,4.76h-.69a5.88,5.88,0,0,0-1.22-3.05,2.69,2.69,0,0,0-2-1A2.44,2.44,0,0,0,70,145.9a7.68,7.68,0,0,0-.83,4.05,8.21,8.21,0,0,0,.91,4.35,2.41,2.41,0,0,0,2.15,1.12,3.05,3.05,0,0,0,2.39-1.12,4.93,4.93,0,0,0,1-2.39h.68a5.18,5.18,0,0,1-1.45,3.21,4.11,4.11,0,0,1-3,1.18,5,5,0,0,1-3.84-1.72,6.35,6.35,0,0,1-1.55-4.41,6.44,6.44,0,0,1,1.78-4.77,4.89,4.89,0,0,1,3.56-1.52,4.07,4.07,0,0,1,1.49.27A5.52,5.52,0,0,1,74.83,145.08Z"/><path class="cls-2" d="M77.86,144.18h5.71v.75h-1a.69.69,0,0,0-.48.14.54.54,0,0,0-.15.41v9.2a.58.58,0,0,0,.16.46.87.87,0,0,0,.59.18h.92v.75H77.86v-.75h.87a1,1,0,0,0,.64-.16.6.6,0,0,0,.18-.47v-9.09a.66.66,0,0,0-.17-.5.75.75,0,0,0-.53-.16h-1Z"/><path class="cls-2" d="M90.42,143.89l4.18,10.66a1.44,1.44,0,0,0,.39.61.9.9,0,0,0,.56.16h.41v.75H90.72v-.75h.49a1.64,1.64,0,0,0,.8-.14.41.41,0,0,0,.22-.36,1.16,1.16,0,0,0-.09-.41l-.86-2.2H87.11l-.4,1a2.86,2.86,0,0,0-.25.93,1.08,1.08,0,0,0,.36.85,1.42,1.42,0,0,0,1,.33h.35v.75H83.94v-.75h.24a1.05,1.05,0,0,0,.72-.27,2.56,2.56,0,0,0,.68-1l4-10.17Zm-1.21,3-1.78,4.53H91Z"/><path class="cls-2" d="M96.48,144.93v-.75h5.72v.75h-1a.8.8,0,0,0-.58.17.76.76,0,0,0-.17.55v8.84a1,1,0,0,0,.16.69,1.21,1.21,0,0,0,.75.15H103a2.21,2.21,0,0,0,1.67-.91,6.56,6.56,0,0,0,1.19-2.9h.68l-.26,4.55h-9.8v-.75h1a.64.64,0,0,0,.49-.18.7.7,0,0,0,.17-.5v-9.09a.61.61,0,0,0-.17-.48.89.89,0,0,0-.58-.15Z"/><path class="cls-2" d="M112.87,141.81h5.38l3,9.66,3-9.66h5.52v.9h-1.2a.64.64,0,0,0-.78.77v10.89a.72.72,0,0,0,.18.57,1.1,1.1,0,0,0,.74.23h1.06v.9H123v-.9h1.28a.68.68,0,0,0,.54-.21.86.86,0,0,0,.19-.59V142.7l-4.25,13.36H120l-4.23-13.48V153a2.07,2.07,0,0,0,.53,1.47,2.39,2.39,0,0,0,1.54.69v.9h-5v-.9a2.07,2.07,0,0,0,1.46-.7,2.36,2.36,0,0,0,.52-1.57v-9.22a1.15,1.15,0,0,0-.19-.78,1,1,0,0,0-.73-.19h-1.06Z"/><path class="cls-2" d="M131,144.18h5.71v.75h-1a.69.69,0,0,0-.48.14.54.54,0,0,0-.15.41v9.2a.58.58,0,0,0,.16.46.87.87,0,0,0,.59.18h.92v.75H131v-.75h.87a1,1,0,0,0,.64-.16.6.6,0,0,0,.18-.47v-9.09a.66.66,0,0,0-.17-.5.75.75,0,0,0-.53-.16h-1Z"/><path class="cls-2" d="M137.93,144.93v-.75h5.72v.75h-1a.8.8,0,0,0-.58.17.76.76,0,0,0-.17.55v8.84a1,1,0,0,0,.16.69,1.21,1.21,0,0,0,.75.15h1.6a2.21,2.21,0,0,0,1.67-.91,6.56,6.56,0,0,0,1.19-2.9H148l-.26,4.55h-9.8v-.75h1a.64.64,0,0,0,.49-.18.7.7,0,0,0,.17-.5v-9.09a.61.61,0,0,0-.17-.48.89.89,0,0,0-.58-.15Z"/><path class="cls-2" d="M149,144.18h5.71v.75h-1a.69.69,0,0,0-.48.14.54.54,0,0,0-.15.41v9.2a.58.58,0,0,0,.16.46.87.87,0,0,0,.59.18h.92v.75H149v-.75h.87a1,1,0,0,0,.64-.16.6.6,0,0,0,.18-.47v-9.09a.66.66,0,0,0-.17-.5.75.75,0,0,0-.53-.16h-1Z"/><path class="cls-2" d="M156,144.18h9.74l.25,4.51h-.68a8.87,8.87,0,0,0-.63-2.26,2.84,2.84,0,0,0-.88-1.15,1.87,1.87,0,0,0-1.08-.34.7.7,0,0,0-.5.15.56.56,0,0,0-.16.43v9.19a.62.62,0,0,0,.15.43.49.49,0,0,0,.37.17h1.27v.75h-6v-.75h1.2a.57.57,0,0,0,.43-.16.61.61,0,0,0,.16-.44v-9.14a.62.62,0,0,0-.16-.47.72.72,0,0,0-.51-.15q-1.92,0-2.6,3.75h-.66Z"/><path class="cls-2" d="M172.69,143.89l4.18,10.66a1.44,1.44,0,0,0,.39.61.9.9,0,0,0,.56.16h.41v.75H173v-.75h.49a1.63,1.63,0,0,0,.8-.14.41.41,0,0,0,.22-.36,1.15,1.15,0,0,0-.09-.41l-.86-2.2h-4.17l-.4,1a2.88,2.88,0,0,0-.25.93,1.08,1.08,0,0,0,.36.85,1.42,1.42,0,0,0,1,.33h.35v.75h-4.23v-.75h.24a1.05,1.05,0,0,0,.72-.27,2.57,2.57,0,0,0,.68-1l4-10.17Zm-1.21,3-1.78,4.53h3.55Z"/><path class="cls-2" d="M179,144.18h5.81a5.83,5.83,0,0,1,2.31.39,2.92,2.92,0,0,1,1.33,1.06,2.67,2.67,0,0,1,.44,1.49,2.51,2.51,0,0,1-1.1,2.12,5.31,5.31,0,0,1-2.57.8,3.32,3.32,0,0,1,1.34.49,2.89,2.89,0,0,1,.83,1,8.67,8.67,0,0,1,.78,2.08,3.55,3.55,0,0,0,.33,1,.4.4,0,0,0,.32.2q.5,0,.59-1.41h.66a3.6,3.6,0,0,1-.63,2.14,1.94,1.94,0,0,1-3.36-.58,11.88,11.88,0,0,1-.38-1.62,11.07,11.07,0,0,0-.5-2,1.75,1.75,0,0,0-.58-.76,1.48,1.48,0,0,0-.87-.25H183v4.38a.58.58,0,0,0,.16.44.76.76,0,0,0,.53.2h1v.75H179v-.75h.87a.66.66,0,0,0,.51-.19.75.75,0,0,0,.17-.53v-9a.78.78,0,0,0-.16-.54.58.58,0,0,0-.45-.17H179Zm3.95,5.39h.94a2.76,2.76,0,0,0,2-.68,2.37,2.37,0,0,0,.54-1.76,2.26,2.26,0,0,0-.53-1.67,2.61,2.61,0,0,0-1.85-.53,1.51,1.51,0,0,0-.89.17,1,1,0,0,0-.18.74Z"/></g></g></svg>