<svg id="Capa_1" data-name="Capa 1" xmlns="http://www.w3.org/2000/svg" viewBox="0 0 612 447"><defs><style>.cls-1{fill:#a8bf34;}.cls-1,.cls-3{fill-rule:evenodd;}.cls-2,.cls-3{fill:#211915;}</style></defs><title>IPSM LOGO FINAL</title><path class="cls-1" d="M306,36.28A133.52,133.52,0,1,1,172.44,169.79,133.52,133.52,0,0,1,306,36.28"/><path class="cls-2" d="M111.37,54.81h64.06V64H163.86c-2.48,0-4.27.61-5.4,1.76a7,7,0,0,0-1.7,5.12V184.56c0,2.64.58,4.54,1.79,5.66,1.5,1.46,3.69,2.2,6.58,2.2h10.3v9.22H111.37v-9.22h9.81c3.38,0,5.74-.68,7.13-2a7.75,7.75,0,0,0,2.08-5.86V72.19c0-2.78-.63-4.85-1.9-6.17s-3.26-2-6-2H111.37Z"/><path class="cls-3" d="M195.88,66.3a8.52,8.52,0,0,1,2,6V82.37C204.65,70.1,216.11,60,228.86,54l-50.37.79v9.3H191A6.41,6.41,0,0,1,195.88,66.3Z"/><path class="cls-2" d="M24.67,329.51H41.34v2.18h-3a2,2,0,0,0-1.41.41,1.57,1.57,0,0,0-.44,1.21v26.86a1.68,1.68,0,0,0,.46,1.34,2.54,2.54,0,0,0,1.72.52h2.68v2.18H24.67V362h2.55a2.85,2.85,0,0,0,1.86-.47,1.74,1.74,0,0,0,.54-1.38V333.62a1.91,1.91,0,0,0-.5-1.45,2.19,2.19,0,0,0-1.55-.47H24.67Z"/><path class="cls-2" d="M44.39,335.29h8.42L67.5,355.12V341.65a4.65,4.65,0,0,0-1.06-3.19,4.25,4.25,0,0,0-3-1.34v-1.82h9.9v1.82a4.32,4.32,0,0,0-3,1.32,4.94,4.94,0,0,0-.9,3.21v22.56H67.32L50.61,341.4v15.8a5.64,5.64,0,0,0,1.16,4,3.8,3.8,0,0,0,2.89,1.24h.46v1.82H44.17v-1.82h.75A3.36,3.36,0,0,0,47.64,361a5.42,5.42,0,0,0,1.1-3.51V338.85a3.71,3.71,0,0,0-3.14-1.73H44.39Z"/><path class="cls-2" d="M92.87,337.52l1.71-2.58h1.3l.16,10H94.39a13.79,13.79,0,0,0-3.65-6.44,7.61,7.61,0,0,0-5.23-2.14,5.61,5.61,0,0,0-4,1.42A4.45,4.45,0,0,0,80,341.15a4,4,0,0,0,.6,2.15,4.79,4.79,0,0,0,2,1.67,21.69,21.69,0,0,0,4.72,1.43A30.15,30.15,0,0,1,92.73,348a8.38,8.38,0,0,1,3.58,3,9.21,9.21,0,0,1-1.39,10.94,11,11,0,0,1-7.72,2.87,11.32,11.32,0,0,1-7.74-3.15l-2.15,2.85H76V353.79h1.61Q80,363,87.32,363A6.82,6.82,0,0,0,92,361.48a4.72,4.72,0,0,0,1.67-3.68,4.39,4.39,0,0,0-.73-2.59,5.07,5.07,0,0,0-2.27-1.69,34.59,34.59,0,0,0-4.18-1.11,24.9,24.9,0,0,1-6.4-2.18,7.34,7.34,0,0,1-2.81-2.75,8.14,8.14,0,0,1-.9-4,8.72,8.72,0,0,1,2.48-6.44,9,9,0,0,1,6.67-2.49A10.86,10.86,0,0,1,92.87,337.52Z"/><path class="cls-2" d="M101.2,335.29h23.71l.6,11h-1.67a21.48,21.48,0,0,0-1.52-5.49,6.92,6.92,0,0,0-2.14-2.8,4.54,4.54,0,0,0-2.63-.83,1.71,1.71,0,0,0-1.21.36,1.36,1.36,0,0,0-.39,1v22.36a1.5,1.5,0,0,0,.38,1.06,1.18,1.18,0,0,0,.91.41h3.08v1.82H105.82v-1.82h2.93a1.38,1.38,0,0,0,1-.4,1.47,1.47,0,0,0,.39-1.07V338.68a1.51,1.51,0,0,0-.4-1.15,1.76,1.76,0,0,0-1.24-.37q-4.67,0-6.33,9.13h-1.61Z"/><path class="cls-2" d="M127.84,335.29h13.9v1.82h-2.51a1.68,1.68,0,0,0-1.17.34,1.32,1.32,0,0,0-.37,1v22.38a1.41,1.41,0,0,0,.39,1.12,2.12,2.12,0,0,0,1.43.43h2.24v1.82h-13.9v-1.82H130a2.39,2.39,0,0,0,1.55-.39,1.45,1.45,0,0,0,.45-1.15V338.72a1.6,1.6,0,0,0-.41-1.21,1.82,1.82,0,0,0-1.29-.39h-2.42Z"/><path class="cls-2" d="M145,335.29h23.71l.6,11h-1.67a21.48,21.48,0,0,0-1.52-5.49A6.92,6.92,0,0,0,164,338a4.54,4.54,0,0,0-2.63-.83,1.71,1.71,0,0,0-1.21.36,1.36,1.36,0,0,0-.39,1v22.36a1.5,1.5,0,0,0,.38,1.06,1.19,1.19,0,0,0,.91.41h3.08v1.82h-14.5v-1.82h2.93a1.38,1.38,0,0,0,1-.4,1.47,1.47,0,0,0,.39-1.07V338.68a1.51,1.51,0,0,0-.4-1.15,1.76,1.76,0,0,0-1.24-.37q-4.67,0-6.33,9.13H144.4Z"/><path class="cls-2" d="M171.41,335.29h13.64v1.82h-2.77a1.1,1.1,0,0,0-.92.42,2,2,0,0,0-.33,1.28v16a7.33,7.33,0,0,0,1.69,5.19,6.05,6.05,0,0,0,4.66,1.81,8,8,0,0,0,4-1,5.46,5.46,0,0,0,2.14-2.44,9.72,9.72,0,0,0,.83-4.28V341.81a5.39,5.39,0,0,0-1-3.52,3.26,3.26,0,0,0-2.63-1.17h-.4v-1.82h10.34v1.82h-.72a2.75,2.75,0,0,0-2.46,1.3,5.78,5.78,0,0,0-.84,3.21v13.31a9.48,9.48,0,0,1-2.79,7.13,10.61,10.61,0,0,1-7.7,2.72,14.17,14.17,0,0,1-6.1-1.22,7.92,7.92,0,0,1-3.69-3.15,10.3,10.3,0,0,1-1.09-5.09V339.09a2.26,2.26,0,0,0-.4-1.55,2,2,0,0,0-1.45-.42h-2Z"/><path class="cls-2" d="M203.39,335.29H227.1l.6,11H226a21.48,21.48,0,0,0-1.52-5.49,6.92,6.92,0,0,0-2.14-2.8,4.54,4.54,0,0,0-2.63-.83,1.71,1.71,0,0,0-1.21.36,1.36,1.36,0,0,0-.39,1v22.36a1.5,1.5,0,0,0,.38,1.06,1.18,1.18,0,0,0,.91.41h3.08v1.82H208v-1.82h2.93a1.38,1.38,0,0,0,1-.4,1.47,1.47,0,0,0,.39-1.07V338.68a1.51,1.51,0,0,0-.4-1.15,1.76,1.76,0,0,0-1.24-.37q-4.67,0-6.33,9.13H202.8Z"/><path class="cls-2" d="M244.17,334.57a13.32,13.32,0,0,1,7.07,2,13.69,13.69,0,0,1,5,5.38,16.16,16.16,0,0,1,1.81,7.69,15.41,15.41,0,0,1-4,10.84,13.48,13.48,0,0,1-16.92,2.36,14.07,14.07,0,0,1-4.91-5.32,16.23,16.23,0,0,1-1.8-7.78,15.4,15.4,0,0,1,3.94-10.86A12.73,12.73,0,0,1,244.17,334.57Zm.11,1.88a5.89,5.89,0,0,0-3.79,1.28,8.59,8.59,0,0,0-2.55,4.13,25.78,25.78,0,0,0-.94,7.81,27.17,27.17,0,0,0,.87,7.9,8,8,0,0,0,2.54,4,6.19,6.19,0,0,0,3.89,1.29,6,6,0,0,0,5.24-3q2-3,2-10.42a27.07,27.07,0,0,0-.84-7.8,7.71,7.71,0,0,0-2.51-3.89A6.18,6.18,0,0,0,244.28,336.45Z"/><path class="cls-2" d="M274.28,335.29h14.6a13.37,13.37,0,0,1,7,1.8,12.42,12.42,0,0,1,4.71,5.12,16.17,16.17,0,0,1,1.7,7.49,17,17,0,0,1-1.56,7.52,12.09,12.09,0,0,1-4.66,5.09,12.54,12.54,0,0,1-6.66,1.9H274.28v-1.82h2.26a1.57,1.57,0,0,0,1.25-.48,2,2,0,0,0,.42-1.34V338.79a1.65,1.65,0,0,0-.44-1.28,2.18,2.18,0,0,0-1.48-.4h-2Zm13.33,27.1a7.62,7.62,0,0,0,4.46-1.35,7.53,7.53,0,0,0,2.81-3.69,22.49,22.49,0,0,0,.86-7.25,23.83,23.83,0,0,0-1-7.91,7.76,7.76,0,0,0-2.76-3.92,9.24,9.24,0,0,0-5.11-1.16,4.86,4.86,0,0,0-2.32.33,1.39,1.39,0,0,0-.47,1.21v21.89a2.13,2.13,0,0,0,.38,1.41,1.52,1.52,0,0,0,1.2.43Z"/><path class="cls-2" d="M305.46,335.29h23.62l.53,10.11H328a17.18,17.18,0,0,0-1.42-5.15,5.76,5.76,0,0,0-2.24-2.36,7.33,7.33,0,0,0-3.62-.78H317a1.79,1.79,0,0,0-1.25.36,1.32,1.32,0,0,0-.39,1v10h1.27a4.33,4.33,0,0,0,3.38-1.33,7.12,7.12,0,0,0,1.42-4.28h1.65v13.45h-1.65q-.17-3.34-1.37-4.71a4.62,4.62,0,0,0-3.65-1.37h-1V361a1.18,1.18,0,0,0,.39,1,2.82,2.82,0,0,0,1.69.43h3.26a7.15,7.15,0,0,0,5.48-2.29q2.13-2.29,2.64-6.9h1.65l-.4,11H305.46v-1.82h2.44a1.53,1.53,0,0,0,1.69-1.66V338.48a1.23,1.23,0,0,0-.43-1,2.64,2.64,0,0,0-1.55-.33h-2.15Z"/><path class="cls-2" d="M348.38,329.51h19.05a10.92,10.92,0,0,1,7.79,2.77,8.94,8.94,0,0,1,2.95,6.78,8.68,8.68,0,0,1-1.7,5.34,9.59,9.59,0,0,1-4.58,3.32,16.72,16.72,0,0,1-5.69,1h-6v11.31a2,2,0,0,0,.51,1.45,1.74,1.74,0,0,0,1.3.52h3.74v2.18H348.38V362h2.9a1.93,1.93,0,0,0,1.46-.52,2,2,0,0,0,.5-1.45V333.62a1.92,1.92,0,0,0-.51-1.41,1.66,1.66,0,0,0-1.23-.52h-3.12Zm11.79,17.1h4a7.28,7.28,0,0,0,3.75-1,5.78,5.78,0,0,0,2.33-2.33,10.47,10.47,0,0,0,.69-4.45q0-4.22-2.13-6-1.56-1.24-5.33-1.24a6,6,0,0,0-2.76.39,1.47,1.47,0,0,0-.58,1.32Z"/><path class="cls-2" d="M382,335.29h14.16a14.21,14.21,0,0,1,5.62.95,7.11,7.11,0,0,1,3.24,2.58,6.48,6.48,0,0,1,1.06,3.62,6.11,6.11,0,0,1-2.68,5.16,12.93,12.93,0,0,1-6.27,2,8.08,8.08,0,0,1,3.27,1.19,7,7,0,0,1,2,2.42,21.07,21.07,0,0,1,1.89,5.06,8.63,8.63,0,0,0,.81,2.39,1,1,0,0,0,.79.49q1.21,0,1.45-3.42H409q-.19,3.64-1.52,5.21a4.73,4.73,0,0,1-8.18-1.42,28.84,28.84,0,0,1-.92-3.95,26.91,26.91,0,0,0-1.22-4.89,4.25,4.25,0,0,0-1.4-1.86,3.6,3.6,0,0,0-2.13-.61h-2v10.65a1.42,1.42,0,0,0,.39,1.07,1.86,1.86,0,0,0,1.28.49h2.46v1.82H382v-1.82h2.13a1.61,1.61,0,0,0,1.25-.46,1.83,1.83,0,0,0,.42-1.28v-21.8a1.91,1.91,0,0,0-.39-1.32,1.41,1.41,0,0,0-1.1-.42H382Zm9.61,13.12h2.29a6.72,6.72,0,0,0,4.8-1.66q1.32-1.27,1.32-4.28a5.49,5.49,0,0,0-1.3-4.06q-1.3-1.28-4.51-1.28a3.67,3.67,0,0,0-2.16.4,2.51,2.51,0,0,0-.44,1.79Z"/><path class="cls-2" d="M411.69,335.29h23.62l.53,10.11h-1.61a17.19,17.19,0,0,0-1.42-5.15,5.77,5.77,0,0,0-2.24-2.36,7.33,7.33,0,0,0-3.62-.78h-3.7a1.79,1.79,0,0,0-1.25.36,1.32,1.32,0,0,0-.39,1v10h1.27a4.33,4.33,0,0,0,3.38-1.33,7.12,7.12,0,0,0,1.42-4.28h1.65v13.45h-1.65q-.17-3.34-1.37-4.71a4.62,4.62,0,0,0-3.65-1.37h-1V361a1.18,1.18,0,0,0,.39,1,2.82,2.82,0,0,0,1.69.43h3.26a7.15,7.15,0,0,0,5.48-2.29q2.13-2.29,2.64-6.9h1.65l-.4,11H411.69v-1.82h2.44a1.66,1.66,0,0,0,1.26-.45,1.68,1.68,0,0,0,.43-1.21V338.48a1.23,1.23,0,0,0-.43-1,2.64,2.64,0,0,0-1.55-.33h-2.15Z"/><path class="cls-2" d="M438.44,335.29h13.28v1.82h-1.45a4.11,4.11,0,0,0-2,.31.94.94,0,0,0-.48.82,5.23,5.23,0,0,0,.41,1.56l6.8,17.51,5.58-15a8.06,8.06,0,0,0,.56-2.8,2.37,2.37,0,0,0-.68-1.84,2.94,2.94,0,0,0-2.05-.63H457.2v-1.82h10.49v1.82h-.79a2.57,2.57,0,0,0-1.81.74,7.23,7.23,0,0,0-1.53,2.66l-9.23,24.32h-2.19l-9.93-25.55a3.56,3.56,0,0,0-1.14-1.74,3.84,3.84,0,0,0-2.07-.43h-.57Z"/><path class="cls-2" d="M468.75,335.29h13.9v1.82h-2.51a1.69,1.69,0,0,0-1.18.34,1.32,1.32,0,0,0-.37,1v22.38A1.41,1.41,0,0,0,479,362a2.12,2.12,0,0,0,1.43.43h2.24v1.82h-13.9v-1.82h2.13a2.39,2.39,0,0,0,1.55-.39,1.45,1.45,0,0,0,.45-1.15V338.72a1.6,1.6,0,0,0-.41-1.21,1.82,1.82,0,0,0-1.29-.39h-2.42Z"/><path class="cls-2" d="M502.62,337.52l1.71-2.58h1.3l.16,10h-1.65a13.8,13.8,0,0,0-3.65-6.44,7.62,7.62,0,0,0-5.23-2.14,5.6,5.6,0,0,0-4,1.42,4.45,4.45,0,0,0-1.53,3.39,4,4,0,0,0,.6,2.15,4.79,4.79,0,0,0,2,1.67A21.72,21.72,0,0,0,497,346.4a30.13,30.13,0,0,1,5.44,1.58,8.37,8.37,0,0,1,3.58,3,9.21,9.21,0,0,1-1.39,10.94,11,11,0,0,1-7.72,2.87,11.32,11.32,0,0,1-7.74-3.15l-2.15,2.85h-1.36V353.79h1.61q2.4,9.17,9.74,9.17a6.82,6.82,0,0,0,4.67-1.47,4.72,4.72,0,0,0,1.67-3.68,4.39,4.39,0,0,0-.73-2.59,5.06,5.06,0,0,0-2.27-1.69,34.62,34.62,0,0,0-4.17-1.11,24.86,24.86,0,0,1-6.4-2.18,7.34,7.34,0,0,1-2.81-2.75,8.14,8.14,0,0,1-.9-4,8.71,8.71,0,0,1,2.48-6.44,9,9,0,0,1,6.66-2.49A10.85,10.85,0,0,1,502.62,337.52Z"/><path class="cls-2" d="M510.47,335.29h13.9v1.82h-2.51a1.69,1.69,0,0,0-1.18.34,1.32,1.32,0,0,0-.37,1v22.38a1.41,1.41,0,0,0,.39,1.12,2.12,2.12,0,0,0,1.43.43h2.24v1.82h-13.9v-1.82h2.13a2.39,2.39,0,0,0,1.55-.39,1.45,1.45,0,0,0,.45-1.15V338.72a1.6,1.6,0,0,0-.41-1.21,1.82,1.82,0,0,0-1.29-.39h-2.42Z"/><path class="cls-2" d="M541.27,334.57a13.32,13.32,0,0,1,7.07,2,13.7,13.7,0,0,1,5,5.38,16.16,16.16,0,0,1,1.81,7.69,15.41,15.41,0,0,1-4,10.84,13.48,13.48,0,0,1-16.93,2.36,14.06,14.06,0,0,1-4.9-5.32,16.22,16.22,0,0,1-1.8-7.78,15.41,15.41,0,0,1,3.94-10.86A12.73,12.73,0,0,1,541.27,334.57Zm.11,1.88a5.88,5.88,0,0,0-3.79,1.28,8.58,8.58,0,0,0-2.55,4.13,25.75,25.75,0,0,0-.94,7.81,27.12,27.12,0,0,0,.87,7.9,7.94,7.94,0,0,0,2.54,4,6.18,6.18,0,0,0,3.89,1.29,6,6,0,0,0,5.24-3q2-3,2-10.42a27,27,0,0,0-.84-7.8,7.72,7.72,0,0,0-2.51-3.89A6.18,6.18,0,0,0,541.38,336.45Zm-2.86-3.34-.51-.45,3-4.51q1.41-2.15,2.9-2.15a2.09,2.09,0,0,1,1.5.65A1.93,1.93,0,0,1,546,328a2.12,2.12,0,0,1-.49,1.38,6.72,6.72,0,0,1-2.19,1.4Z"/><path class="cls-2" d="M558.42,335.29h8.42l14.69,19.82V341.65a4.64,4.64,0,0,0-1.06-3.19,4.24,4.24,0,0,0-3-1.34v-1.82h9.9v1.82a4.32,4.32,0,0,0-3,1.32,4.94,4.94,0,0,0-.9,3.21v22.56h-2.12L564.63,341.4v15.8a5.65,5.65,0,0,0,1.16,4,3.8,3.8,0,0,0,2.89,1.24h.46v1.82H558.2v-1.82H559a3.36,3.36,0,0,0,2.71-1.37,5.42,5.42,0,0,0,1.1-3.51V338.85a3.71,3.71,0,0,0-3.13-1.73h-1.21Z"/><path class="cls-2" d="M144.63,378l2-3.1h1.56l.2,12h-2a16.55,16.55,0,0,0-4.38-7.73,9.14,9.14,0,0,0-6.27-2.57,6.74,6.74,0,0,0-4.76,1.7,5.34,5.34,0,0,0-1.84,4.06,4.8,4.8,0,0,0,.73,2.58,5.76,5.76,0,0,0,2.34,2,25.93,25.93,0,0,0,5.66,1.72,36.12,36.12,0,0,1,6.53,1.9,10,10,0,0,1,4.3,3.6,11,11,0,0,1-1.67,13.12,13.15,13.15,0,0,1-9.26,3.45,13.58,13.58,0,0,1-9.29-3.78L126,410.37h-1.63V397.52h1.94q2.88,11,11.69,11a8.18,8.18,0,0,0,5.6-1.77,5.66,5.66,0,0,0,2-4.42,5.28,5.28,0,0,0-.88-3.11,6.09,6.09,0,0,0-2.72-2,42.22,42.22,0,0,0-5-1.34,29.84,29.84,0,0,1-7.68-2.61,8.8,8.8,0,0,1-3.38-3.3,9.77,9.77,0,0,1-1.08-4.77,10.47,10.47,0,0,1,3-7.73,10.8,10.8,0,0,1,8-3A13,13,0,0,1,144.63,378Z"/><path class="cls-2" d="M167.91,380.39a13.32,13.32,0,0,1,7.07,2,13.69,13.69,0,0,1,5,5.38,16.16,16.16,0,0,1,1.81,7.69,15.41,15.41,0,0,1-4,10.84,13.48,13.48,0,0,1-16.92,2.36,14.07,14.07,0,0,1-4.91-5.32,16.23,16.23,0,0,1-1.8-7.78,15.4,15.4,0,0,1,3.94-10.86A12.73,12.73,0,0,1,167.91,380.39Zm.11,1.88a5.89,5.89,0,0,0-3.79,1.28,8.59,8.59,0,0,0-2.55,4.13,25.78,25.78,0,0,0-.94,7.81,27.16,27.16,0,0,0,.87,7.9,7.94,7.94,0,0,0,2.54,4,6.18,6.18,0,0,0,3.89,1.29,6,6,0,0,0,5.24-3q2-3,2-10.42a27.07,27.07,0,0,0-.84-7.8,7.71,7.71,0,0,0-2.51-3.89A6.18,6.18,0,0,0,168,382.26Z"/><path class="cls-2" d="M206.9,383.3l1.27-2.88h1.36L210,392h-1.69q-.79-5-3-7.43a6.56,6.56,0,0,0-5-2.42,5.94,5.94,0,0,0-5.1,3.12q-2,3.13-2,9.86,0,7.13,2.22,10.59a5.87,5.87,0,0,0,5.24,2.72,7.43,7.43,0,0,0,5.83-2.72,12,12,0,0,0,2.38-5.83h1.65a12.59,12.59,0,0,1-3.54,7.82,10,10,0,0,1-7.26,2.87,12.06,12.06,0,0,1-9.34-4.19,15.44,15.44,0,0,1-3.77-10.73q0-7.27,4.35-11.6a11.9,11.9,0,0,1,8.67-3.69,9.92,9.92,0,0,1,3.64.65A13.44,13.44,0,0,1,206.9,383.3Z"/><path class="cls-2" d="M214.27,381.11h13.9v1.82h-2.51a1.68,1.68,0,0,0-1.17.34,1.31,1.31,0,0,0-.37,1v22.38a1.41,1.41,0,0,0,.39,1.12,2.12,2.12,0,0,0,1.43.43h2.24V410h-13.9V408.2h2.13a2.38,2.38,0,0,0,1.55-.39,1.45,1.45,0,0,0,.45-1.15V384.53a1.6,1.6,0,0,0-.41-1.21,1.82,1.82,0,0,0-1.29-.39h-2.42Z"/><path class="cls-2" d="M244.84,380.39,255,406.33a3.5,3.5,0,0,0,1,1.49,2.19,2.19,0,0,0,1.36.39h1V410H245.59V408.2h1.19a4,4,0,0,0,1.94-.33,1,1,0,0,0,.53-.88,2.81,2.81,0,0,0-.22-1l-2.09-5.36H236.79l-1,2.44a7,7,0,0,0-.61,2.27,2.64,2.64,0,0,0,.88,2.06,3.47,3.47,0,0,0,2.41.79h.86V410H229.07V408.2h.59a2.56,2.56,0,0,0,1.75-.66,6.22,6.22,0,0,0,1.66-2.4l9.72-24.75Zm-2.95,7.32-4.35,11h8.65Z"/><path class="cls-2" d="M259.62,382.93v-1.82h13.92v1.82h-2.35a1.94,1.94,0,0,0-1.41.41,1.84,1.84,0,0,0-.4,1.33v21.5a2.44,2.44,0,0,0,.39,1.67,3,3,0,0,0,1.81.36h3.91a5.38,5.38,0,0,0,4.07-2.21q1.89-2.21,2.9-7.06h1.65L283.47,410H259.62V408.2H262a1.56,1.56,0,0,0,1.19-.43,1.71,1.71,0,0,0,.4-1.21V384.45a1.48,1.48,0,0,0-.41-1.16,2.17,2.17,0,0,0-1.42-.36Z"/><path class="cls-2" d="M299.52,375.33h13.11l7.39,23.5,7.36-23.5h13.44v2.18H337.9a1.57,1.57,0,0,0-1.9,1.88v26.51a1.76,1.76,0,0,0,.44,1.38,2.68,2.68,0,0,0,1.79.56h2.59V410H324.25v-2.18h3.13a1.64,1.64,0,0,0,1.31-.52,2.1,2.1,0,0,0,.45-1.43V377.51L318.8,410h-1.94l-10.31-32.79v25.36a5,5,0,0,0,1.3,3.58,5.83,5.83,0,0,0,3.76,1.68V410H299.52v-2.18a5,5,0,0,0,3.55-1.71,5.73,5.73,0,0,0,1.27-3.83V379.88a2.79,2.79,0,0,0-.46-1.9,2.52,2.52,0,0,0-1.78-.47h-2.57Z"/><path class="cls-2" d="M343.7,381.11h13.9v1.82h-2.51a1.69,1.69,0,0,0-1.18.34,1.32,1.32,0,0,0-.37,1v22.38a1.41,1.41,0,0,0,.39,1.12,2.12,2.12,0,0,0,1.43.43h2.24V410H343.7V408.2h2.13a2.39,2.39,0,0,0,1.55-.39,1.45,1.45,0,0,0,.45-1.15V384.53a1.6,1.6,0,0,0-.41-1.21,1.82,1.82,0,0,0-1.29-.39H343.7Z"/><path class="cls-2" d="M360.55,382.93v-1.82h13.92v1.82h-2.35a2,2,0,0,0-1.41.41,1.84,1.84,0,0,0-.4,1.33v21.5a2.44,2.44,0,0,0,.39,1.67,3,3,0,0,0,1.82.36h3.91a5.38,5.38,0,0,0,4.07-2.21q1.89-2.21,2.9-7.06H385L384.41,410H360.55V408.2h2.38a1.56,1.56,0,0,0,1.19-.43,1.71,1.71,0,0,0,.4-1.21V384.45a1.47,1.47,0,0,0-.41-1.16,2.17,2.17,0,0,0-1.42-.36Z"/><path class="cls-2" d="M387.48,381.11h13.9v1.82h-2.51a1.69,1.69,0,0,0-1.18.34,1.32,1.32,0,0,0-.37,1v22.38a1.41,1.41,0,0,0,.39,1.12,2.12,2.12,0,0,0,1.43.43h2.24V410h-13.9V408.2h2.13a2.39,2.39,0,0,0,1.55-.39,1.45,1.45,0,0,0,.45-1.15V384.53a1.6,1.6,0,0,0-.41-1.21,1.82,1.82,0,0,0-1.29-.39h-2.42Z"/><path class="cls-2" d="M404.63,381.11h23.71l.61,11h-1.67a21.59,21.59,0,0,0-1.52-5.49,6.93,6.93,0,0,0-2.14-2.8A4.55,4.55,0,0,0,421,383a1.72,1.72,0,0,0-1.21.36,1.36,1.36,0,0,0-.39,1v22.36a1.51,1.51,0,0,0,.38,1.06,1.18,1.18,0,0,0,.91.41h3.08V410h-14.5V408.2h2.93a1.38,1.38,0,0,0,1-.4,1.47,1.47,0,0,0,.39-1.07V384.49a1.52,1.52,0,0,0-.39-1.15A1.77,1.77,0,0,0,412,383q-4.68,0-6.32,9.13H404Z"/><path class="cls-2" d="M445.18,380.39l10.17,25.94a3.51,3.51,0,0,0,1,1.49,2.2,2.2,0,0,0,1.36.39h1V410H445.92V408.2h1.19a4,4,0,0,0,1.94-.33,1,1,0,0,0,.53-.88,2.79,2.79,0,0,0-.22-1l-2.09-5.36H437.13l-1,2.44a7,7,0,0,0-.61,2.27,2.63,2.63,0,0,0,.88,2.06,3.47,3.47,0,0,0,2.41.79h.86V410H429.4V408.2H430a2.57,2.57,0,0,0,1.75-.66,6.25,6.25,0,0,0,1.66-2.4l9.72-24.75Zm-2.95,7.32-4.35,11h8.65Z"/><path class="cls-2" d="M460.61,381.11h14.16a14.21,14.21,0,0,1,5.62.95,7.11,7.11,0,0,1,3.24,2.58,6.48,6.48,0,0,1,1.06,3.62,6.12,6.12,0,0,1-2.68,5.16,12.93,12.93,0,0,1-6.27,2,8.08,8.08,0,0,1,3.27,1.19,7,7,0,0,1,2,2.42,21.1,21.1,0,0,1,1.89,5.06,8.61,8.61,0,0,0,.81,2.39,1,1,0,0,0,.79.49q1.21,0,1.45-3.42h1.61q-.19,3.64-1.52,5.21a4.73,4.73,0,0,1-8.18-1.42,28.86,28.86,0,0,1-.92-3.95,26.9,26.9,0,0,0-1.22-4.89,4.25,4.25,0,0,0-1.4-1.86,3.6,3.6,0,0,0-2.13-.61h-2v10.65a1.42,1.42,0,0,0,.39,1.07,1.86,1.86,0,0,0,1.28.49h2.46V410H460.61V408.2h2.13a1.61,1.61,0,0,0,1.25-.46,1.83,1.83,0,0,0,.42-1.28v-21.8a1.9,1.9,0,0,0-.39-1.32,1.41,1.41,0,0,0-1.1-.42h-2.31Zm9.61,13.12h2.29a6.72,6.72,0,0,0,4.8-1.66q1.32-1.27,1.32-4.28a5.49,5.49,0,0,0-1.3-4.06q-1.3-1.28-4.51-1.28a3.67,3.67,0,0,0-2.16.4,2.52,2.52,0,0,0-.44,1.79Z"/><path class="cls-2" d="M196.87,190.36a7.5,7.5,0,0,1-5.85,2.19H179.38v9.25h69.44v-9.25h-15a6.76,6.76,0,0,1-5.19-2.19,8.7,8.7,0,0,1-2-6.16V136.29h24.14a63.73,63.73,0,0,0,22.78-4.38,38.09,38.09,0,0,0,25.16-36.67,38.92,38.92,0,0,0-11.81-28.73C279,58.69,268.55,54,255.63,54l-15.83-.18a124.8,124.8,0,0,0-41.48,37l.54,93.35A8.82,8.82,0,0,1,196.87,190.36ZM226.62,71.18q0-4,2.33-5.61c1.57-1.09,5.24-1.64,11.06-1.64q15.07,0,21.33,5.27,8.55,7.36,8.54,25.24,0,13-2.78,18.84a23.88,23.88,0,0,1-9.34,9.89,27.93,27.93,0,0,1-15,4.08H226.62Z"/><path class="cls-2" d="M325.6,205.11q-6.63-3.56-23.95-8-14.82-3.76-20.74-7.26a22.28,22.28,0,0,1-8.58-8.44,22.56,22.56,0,0,1-2.66-10.87,24.12,24.12,0,0,1,6.74-17.13q6.73-7.16,17.46-7.16,12.58,0,23,10.83t16.05,32.58h7.26l-.73-50.53h-5.73l-7.5,13.06q-14.68-14.93-32.34-14.94-18.39,0-29.32,12.6t-10.93,32.57q0,11.85,4,20.11a35,35,0,0,0,12.38,13.93q8.42,5.69,28.16,11,14.66,3.86,18.37,5.63a22.93,22.93,0,0,1,10,8.55,24.72,24.72,0,0,1,3.23,13.09,25.52,25.52,0,0,1-7.34,18.63q-7.33,7.45-20.54,7.46-32.31,0-42.86-46.38h-7.1v54.19h6l9.44-14.44q15.41,15.92,34,15.92,20.24,0,34-14.53,11.38-12.06,11.38-32.32,0-13.55-5.26-23A38.67,38.67,0,0,0,325.6,205.11Z"/><path class="cls-2" d="M353,136.71v9.68h9.49c3.24,0,5.43.7,6.57,2.09s1.71,4.19,1.71,8.43v99.47q0,10.31-4.67,17a17.61,17.61,0,0,1-13.1,7.59v9.68l9.85,0a134,134,0,0,0,23.59-14.33,15.35,15.35,0,0,1-2.78-2.82q-4.79-6.19-4.79-15.86V145.15l28.88,111a137,137,0,0,0,17.75-26.84l-24.19-92.63Z"/><path class="cls-2" d="M491.43,150.8q1.52-1.87,5.52-1.87h10.79v-9.59H458l-27.2,103.3-2.32-8h0c-1.17,2.27-2.27,4.25-3.57,6.45h0l-.26.43a142.64,142.64,0,0,1-8.37,12.55h0l-.58.79h0q-2.31,3.05-4.77,6h0l8.18,30.95h7.19l38.22-142.89V273.68a10.43,10.43,0,0,1-1.67,6.29,5.63,5.63,0,0,1-4.84,2.27H446.5v9.59h61.24v-9.59h-9.56a8.9,8.9,0,0,1-6.62-2.47c-1.08-1.1-1.63-3.13-1.63-6.08V157.19Q489.92,152.66,491.43,150.8Z"/><path class="cls-2" d="M383.7,273.55a22,22,0,0,1-4.57-9.44,74.27,74.27,0,0,1-9-.91,25.54,25.54,0,0,1-4,10.2A17.59,17.59,0,0,1,353.06,281v9.67h44.5V281A21.11,21.11,0,0,1,383.7,273.55Z"/></svg>